<?xml version="1.0" encoding="utf-8"?>
<!-- Generator: Adobe Illustrator 26.0.3, SVG Export Plug-In . SVG Version: 6.00 Build 0)  -->
<svg version="1.1" id="layer1" xmlns="http://www.w3.org/2000/svg" xmlns:xlink="http://www.w3.org/1999/xlink" x="0px" y="0px"
	 viewBox="0 0 1920 1080" style="enable-background:new 0 0 1920 1080;" xml:space="preserve">
<style type="text/css">
	.st0{fill:#A17C60;}
	.st1{fill:#FFFFFF;}
	.st2{fill:#49374E;}
	.st3{fill:#F4F5F5;}
	.st4{fill:#853037;}
</style>
<path id="wleft" class="st0" d="M830,408.5c-145.6-57.1-298.4,9.6-365.7-85c0,0-12.5,101.5,109.4,125c67.1,12.9,101.3,11,143.8,14.3
	c52.8,4.1,93.5,17.9,120.6,40.6c0,0-61.3-29.4-175-26.9c-87.1,1.9-135.1-9.2-157.4-29.7c0,0,1.9,66.9,91,86.8
	c35.2,7.9,91.7,4,143.1,2.5c44.4-1.3,110.8,7.1,139.9,36.7c0,0-46.2-25.5-134.9-20.3c-79.6,4.7-114.9,13.4-153.4,4.2
	c0,0,52.4,55.8,139.2,56.9c18.8,0.2,37.6-7.7,52.2-8.3c60.9-2.5,87.2-1.8,120.7,13.3c-15.5-3.3-56.3-2.7-123.7,7.6
	c-32.6,5-59.6,9.5-83.2,1.9c0,0,46.6,52.7,133.4,51.7c46.1-0.5,78.3-4.9,106.8-7c3.6-17.1,4.9-33.9,5.2-47.6
	c0.2,0.1,0.3,0.1,0.5,0.2C942.5,625.5,975.6,465.7,830,408.5z"/>
<path id="wright" class="st0" d="M1090.9,408.5c145.6-57.1,298.4,9.6,365.7-85c0,0,12.5,101.5-109.4,125
	c-67.1,12.9-101.3,11-143.8,14.3c-52.8,4.1-93.5,17.9-120.6,40.6c0,0,61.3-29.4,175-26.9c87.1,1.9,135.1-9.2,157.4-29.7
	c0,0-1.9,66.9-91,86.8c-35.2,7.9-91.7,4-143.1,2.5c-44.4-1.3-110.8,7.1-139.9,36.7c0,0,46.2-25.5,134.9-20.3
	c79.6,4.7,114.9,13.4,153.4,4.2c0,0-52.4,55.8-139.2,56.9c-19.6,0.3-37.2-6.2-52.3-6.9c-59.6-2.6-87.5-3.1-120.6,11.8
	c15.5-3.3,56.3-2.7,123.7,7.6c32.6,5,59.6,9.5,83.2,1.9c0,0-46.6,52.7-133.4,51.7c-46.1-0.5-78.3-4.9-106.8-7
	c-3.6-17.1-4.9-33.9-5.2-47.6c-0.2,0.1-0.3,0.1-0.5,0.2C978.4,625.5,945.3,465.7,1090.9,408.5z"/>
<g>
	<g>
		<path class="st1" d="M958.5,810.4l-0.8-0.3c-0.7-0.2-1.3-0.5-1.9-0.8C808.2,742.8,755.2,616.4,736.8,522
			c-8.4-42.8-10.6-82.7-10.4-114.7c141.1-2.5,391-0.6,467.4-5c0.5,32.9-1.5,74.7-10.4,119.8c-18.5,94.4-71.5,220.7-219.1,287.2
			c-0.6,0.4-1.2,0.6-1.9,0.8l-0.8,0.3c0,0-1.5,0-1.6,0H958.5z"/>
	</g>
</g>
<g>
	<g>
		<path class="st2" d="M1180.7,333l-220.4-63.2h-0.4L739.6,333c0,0-61,343.7,220,469.6c0,0,0.3,0.3,0.5,0.2c0.2,0.1,0.5-0.2,0.5-0.2
			C1241.6,676.7,1180.7,333,1180.7,333z"/>
	</g>
</g>
<g>
	<g>
		<g>
			<path class="st3" d="M960.1,760.9C864.9,713,804.9,630.6,781.8,515.5c-12.9-64.1-10.5-122.3-7.7-153.1l186-53.4l186,53.4
				c2.8,30.7,5.1,89-7.7,153.1C1115.3,630.6,1055.4,713,960.1,760.9z"/>
		</g>
	</g>
	<g>
		<g>
			<path class="st1" d="M960.1,760.9C864.9,713,804.9,630.6,781.8,515.5c-12.9-64.1-10.5-122.3-7.7-153.1l186-53.4l186,53.4
				c2.8,30.7,5.1,89-7.7,153.1C1115.3,630.6,1055.4,713,960.1,760.9z"/>
		</g>
	</g>
</g>
<g>
	<g>
		<polygon class="st2" points="1185.8,398.6 1099.4,398.6 1149,389.6 		"/>
	</g>
</g>
<g>
	<g>
		<polygon class="st2" points="735,398.6 821.4,398.6 771.9,389.6 		"/>
	</g>
</g>
<g id="wrights">
	<g>
		<g>
			<g>
				<path class="st1" d="M1401.1,417.7c-12.4,8.3-26.8,13-41.2,16.8c-14.4,3.8-29.1,6.4-43.9,8.6c-29.5,4.3-59.3,6.7-89,8.1
					l-0.2-7.1c29.6-0.2,59.3-1.4,88.8-4.5c14.7-1.6,29.4-3.6,43.9-6.8C1373.9,429.5,1388.4,425.4,1401.1,417.7z"/>
			</g>
		</g>
	</g>
	<g>
		<g>
			<g>
				<path class="st1" d="M1355.2,513.1c-8.9,5.3-19.2,7.8-29.3,9.7c-10.2,1.9-20.5,3-30.9,3.8c-20.7,1.5-41.4,1.6-62.2,0.9l0.5-7.1
					c20.4,1.9,41,2.9,61.6,2.6c10.3-0.2,20.5-0.7,30.7-2C1335.8,519.8,1346,517.9,1355.2,513.1z"/>
			</g>
		</g>
	</g>
	<g>
		<g>
			<g>
				<path class="st1" d="M1183.7,647.8c-4,3-8.7,5.1-13.4,7c-4.7,1.9-9.5,3.5-14.3,5c-9.7,2.9-19.4,5.5-29.8,7l-0.5-7.1
					c9.6-0.3,19.7-1.7,29.4-3.4c4.9-0.9,9.8-1.9,14.6-3.2C1174.5,651.8,1179.3,650.3,1183.7,647.8z"/>
			</g>
		</g>
	</g>
	<g>
		<g>
			<g>
				<path class="st1" d="M1282.6,578.7c-3.4,2.8-7.4,4.6-11.4,6.4c-4,1.7-8.1,3.3-12.3,4.7c-8.4,2.7-16.6,5.2-25.9,6.5l-0.3-7.1
					c8.1,0,16.8-1.3,25.3-2.8c4.2-0.8,8.4-1.7,12.6-2.9C1274.7,582.2,1278.8,581,1282.6,578.7z"/>
			</g>
		</g>
	</g>
</g>
<g id="wlefts">
	<g>
		<g>
			<g>
				<path class="st1" d="M519.9,417.7c12.7,7.8,27.2,11.8,41.6,15.1c14.5,3.2,29.2,5.2,43.9,6.8c29.5,3.1,59.1,4.3,88.8,4.5
					l-0.2,7.1c-29.8-1.4-59.5-3.8-89-8.1c-14.7-2.2-29.4-4.8-43.9-8.6C546.7,430.7,532.3,425.9,519.9,417.7z"/>
			</g>
		</g>
	</g>
	<g>
		<g>
			<g>
				<path class="st1" d="M565.8,513.1c9.2,4.7,19.5,6.7,29.6,8c10.2,1.3,20.5,1.8,30.7,2c20.6,0.3,41.1-0.8,61.6-2.6l0.5,7.1
					c-20.7,0.7-41.5,0.5-62.2-0.9c-10.3-0.8-20.7-1.9-30.9-3.8C585,521,574.7,518.4,565.8,513.1z"/>
			</g>
		</g>
	</g>
	<g>
		<g>
			<g>
				<path class="st1" d="M737.3,647.8c4.3,2.5,9.2,4,13.9,5.3c4.8,1.3,9.7,2.3,14.6,3.2c9.8,1.7,19.8,3.1,29.4,3.4l-0.5,7.1
					c-10.4-1.5-20.1-4.1-29.8-7c-4.8-1.5-9.6-3.1-14.3-5C746,652.9,741.3,650.8,737.3,647.8z"/>
			</g>
		</g>
	</g>
	<g>
		<g>
			<g>
				<path class="st1" d="M638.5,578.7c3.7,2.3,7.9,3.5,12,4.7c4.2,1.2,8.4,2.1,12.6,2.9c8.4,1.5,17.2,2.8,25.3,2.8l-0.3,7.1
					c-9.2-1.2-17.5-3.7-25.9-6.5c-4.2-1.4-8.3-2.9-12.3-4.7C645.9,583.3,641.9,581.5,638.5,578.7z"/>
			</g>
		</g>
	</g>
</g>
<g>
	<g>
		<path class="st1" d="M960.3,771.5v7.1l32.3-16.7L960.3,771.5z M960.3,792.1l26.9-15.6l-26.9,8.2V792.1z"/>
	</g>
</g>
<g>
	<g>
		<path class="st1" d="M959.8,298.6v-7.1l-45.9,21.2L959.8,298.6z M959.8,277.9l-19.9,11.5l19.9-4.2V277.9z"/>
	</g>
</g>
<g>
	<g>
		<path class="st2" d="M1199,620.1c-85.2-17.7-152.5-34.9-238.9-34.9c-83.3,0-159.4,17.9-241.6,34.9c-3.3-1.1-22.7-8-33.9-15.6
			c0-63.3,0-133.9,0-195.5c183.7,0,367.4,0,551.1,0c0,61.5,0,131.9,0,195.1C1227.4,608.8,1216.5,614,1199,620.1z"/>
	</g>
</g>
<g>
	<g>
		<path class="st1" d="M1235.6,603c-181.8-37.6-369.3-37.6-551.1,0c0-68.1,0-136.3,0-204.4c183.7,0,367.4,0,551.1,0
			C1235.6,466.8,1235.6,534.9,1235.6,603z"/>
	</g>
</g>
<path id="key2" class="st0" d="M920.8,618.4L920.8,618.4c-0.2-0.5-3.4-11.2-11.8-14c-1.9-0.6-3.9-1-5.8-1c-7.1,0-12.1,4.2-12.3,4.4
	l-2.7,2.3l17.2,6.9c1.3,7.9-1.8,11.5-3,12.6l-16.5-5.9l1.3,3.6c1.8,4.9,4.3,9.8,10.1,12.9c2.8,1.4,5.7,2.1,8.8,2.1
	c2.7,0,4.8-0.6,6-0.9c1-0.2,2.3-0.4,3.7-0.4c2.6,0,5.2,0.4,6.4,1c0.7,0.4,7,4.1,15.3,9.1c3.7-2.2,7.8-4.7,11.8-7.2l2.7-1.6
	c-8.1-5-15.2-9.4-18.6-11.3C924.3,625.4,920.8,618.4,920.8,618.4z M1013.6,674.7l-0.4,0c-9-0.7-15.1-4.4-19.7-7.1
	c-0.8-0.5-1.6-1-2.3-1.4c-1.3-0.8-5.4-3.2-10.8-6.6c-4.7,2.7-9.8,5.6-14.5,8.3c10.1,6.1,18.9,11.3,22.3,13.3
	c7.4,4.3,10.9,9.5,12,11.2c1.4,4.7,5.5,7.7,10.4,7.7h0.1c6.7-0.1,12.9-5.6,13.9-12.5C1025.6,680.5,1020.8,674.7,1013.6,674.7z
	 M1011.4,693.6c-3.1,0-5.4-2.6-5.1-5.8c0.4-3.3,3.3-6,6.5-6.1h0c3.2,0,5.5,2.7,5,6C1017.5,690.9,1014.6,693.5,1011.4,693.6z"/>
<path id="key1" class="st0" d="M905.2,700.1c-6.7-0.1-12.6-5.6-13.2-12.5c-0.6-7.1,4.5-12.9,11.7-12.9l0.4,0
	c9-0.7,15.4-4.4,20.1-7.1c0.9-0.5,1.7-1,2.4-1.4c2.5-1.4,14.5-8.6,27.6-16.3c13-7.8,26.8-16,32-18.9c9.7-5.5,13.6-12.6,13.6-12.6
	l0,0c0.2-0.5,4-11.2,12.6-14c1.9-0.6,3.9-1,5.9-1c7.1,0,11.9,4.2,12.1,4.4l2.5,2.3l-17.6,6.9c-1.7,7.9,1.1,11.5,2.3,12.6l16.8-5.9
	l-1.5,3.6c-2.1,4.9-4.8,9.8-10.9,12.9c-2.8,1.4-5.8,2.1-8.9,2.1c-2.7,0-4.8-0.6-6-0.9c-1-0.3-2.2-0.4-3.7-0.4c-2.6,0-5.2,0.4-6.5,1
	c-1.3,0.6-21.2,12.2-38.1,22c-13.2,7.7-25.7,14.9-30,17.3c-7.6,4.3-11.5,9.5-12.6,11.2C914.5,697.2,910.3,700.1,905.2,700.1
	L905.2,700.1z M904,681.7c-3.2,0-5.6,2.7-5.4,6c0.2,3.3,3,5.9,6.2,5.9c3.1,0,5.6-2.6,5.4-5.8C910,684.5,907.3,681.7,904,681.7
	L904,681.7z"/>
<path id="text" class="st4" d="M754.7,416.7c-10.4,0-20.7,0-31.1,0c-7.1,0-12.6,1.9-16.6,5.8c-4,3.9-5.9,9.4-5.9,16.4v118.4
	c0,7.1,2,12.3,5.9,15.4c3.9,3.1,9.4,3.9,16.4,2.6c17.8-3.4,35.8-6.4,53.7-9c0.1-26.4,0.2-52.7,0.3-79.1c-13.1,0.9-26.3,1.8-39.4,2.9
	c0,9.4,0,18.7-0.1,28.1c3.7-0.5,7.5-1,11.2-1.5c0,9.9,0,19.7-0.1,29.6c-6.8,1-13.5,2-20.2,3c0.1-35.9,0.1-71.8,0.2-107.7
	c6.8-0.2,13.5-0.4,20.3-0.6c0,10.5-0.1,21-0.1,31.5c9.4-4.9,18.8-9.6,28.2-14.1c0-7.1,0-14.3,0.1-21.4c0-6.5-2-11.4-6-15
	C767.5,418.5,761.9,416.7,754.7,416.7z M845.8,416.7c-10.4,0-20.8,0-31.2,0c-7.1,0-12.6,1.7-16.6,5.3c-4,3.5-6,8.5-6,14.9
	c-0.1,42.5-0.3,85-0.4,127.5c9.3-1.2,18.6-2.4,27.9-3.4c0.1-17.4,0.1-34.8,0.2-52.2c6.9-0.5,13.8-1,20.7-1.5
	c-0.1,17.2-0.1,34.3-0.2,51.5c9.3-0.9,18.6-1.7,28-2.4c0.1-40.2,0.2-80.4,0.4-120.6c0-6-2-10.7-6-14
	C858.4,418.4,852.9,416.7,845.8,416.7z M840.3,481.9c-6.9,0.3-13.7,0.7-20.6,1.1c0.1-14.5,0.1-29,0.2-43.4
	c6.9-0.1,13.8-0.2,20.7-0.3C840.5,453.4,840.4,467.7,840.3,481.9z M959.4,484.2c0-16.3,0-32.6,0-48.9c0-5.9-2-10.5-6-13.7
	c-4-3.3-9.6-4.9-16.7-4.9c-17.9,0-35.8,0-53.7,0c-0.1,46.2-0.2,92.5-0.4,138.7c9.3-0.6,18.7-1,28-1.4c0-16.4,0.1-32.7,0.1-49.1
	c1.4-0.6,2.8-1.2,4.2-1.8c8.8,16.7,17.6,33.4,26.5,50.1c9.8-0.2,19.6-0.2,29.4-0.1c-10.7-20.2-21.3-40.2-31.9-60.2
	C945.7,489.9,952.6,487,959.4,484.2z M931.5,471.8c-6.9,0.1-13.8,0.2-20.7,0.3c0-11.2,0-22.4,0.1-33.6c6.9,0,13.8-0.1,20.7-0.1
	C931.5,449.5,931.5,460.6,931.5,471.8z M1043.9,421.7c-4-3.3-9.6-5-16.7-5c-10.4,0-20.8,0-31.2,0c-7.1,0-12.6,1.6-16.6,4.9
	c-3.9,3.3-5.9,7.8-5.9,13.7c0,39.2,0,78.5,0.1,117.7c9.3,0.1,18.7,0.3,28,0.6c0-16.5,0-33-0.1-49.5c6.9,0.1,13.8,0.2,20.8,0.4
	c0,16.6,0.1,33.3,0.1,49.9c9.3,0.4,18.7,1,28,1.6c-0.1-40.1-0.2-80.2-0.4-120.3C1049.9,429.7,1047.9,425,1043.9,421.7z M1022,479.9
	c-6.9-0.1-13.8-0.2-20.6-0.3c0-13.7,0-27.5-0.1-41.2c6.9,0,13.8,0.1,20.7,0.1C1022.1,452.3,1022,466.1,1022,479.9z M1101.3,484.5
	c0,8.6,0.1,17.3,0.1,25.9c3.8,0.2,7.5,0.4,11.3,0.6c0,9.3,0.1,18.6,0.1,27.9c-6.8-0.7-13.6-1.3-20.4-1.9
	c-0.1-32.6-0.2-65.1-0.4-97.7c6.8,0.1,13.6,0.2,20.3,0.4c0,9.9,0.1,19.8,0.1,29.7c9.4-3.6,18.8-7.4,28.2-11.1c0-7.1,0-14.2-0.1-21.3
	c0-6.4-2.1-11.5-6.1-15c-4-3.6-9.6-5.3-16.8-5.3c-10.4,0-20.7,0-31.1,0c-7.1,0-12.6,1.7-16.6,5.1c-3.9,3.4-5.9,8.1-5.9,14.1
	c0.1,34,0.2,68,0.3,102c0,6.1,2,11,6,14.7c4,3.7,9.5,5.9,16.6,6.6c18,1.8,36,3.9,54,6.4c-0.1-26.2-0.2-52.5-0.3-78.7
	C1127.7,486,1114.5,485.2,1101.3,484.5z M1222.4,416.7c-22.5,0-44.9,0-67.4,0c0.2,50.3,0.3,100.7,0.5,151c22.4,3.4,44.7,7.4,66.9,12
	v-26c-13-2.3-26.1-4.4-39.2-6.3c0-16.8,0-33.6,0-50.4c10,0.9,20,1.9,30,2.9c0-9.6,0-19.2,0-28.8c-10-0.7-20-1.4-30.1-2.1
	c-0.1-9.1-0.1-18.2-0.2-27.4c13.1,0.4,26.3,0.8,39.4,1.2V416.7z"/>
</svg>
